<?xml version="1.0" encoding="UTF-8" standalone="no"?>
<!-- Uploaded to: SVG Repo, www.svgrepo.com, Generator: SVG Repo
Mixer Tools -->

<svg
   width="494.5788"
   height="639.20697"
   viewBox="0 0 226.48 292.70885"
   id="Layer_1"
   data-name="Layer 1"
   version="1.1"
   xmlns="http://www.w3.org/2000/svg"
   xmlns:svg="http://www.w3.org/2000/svg">
  <defs
     id="defs2">
    <style
       id="style1">
            .cls-1{fill:#f2a196;}.cls-2{fill:#e88870;}.cls-3{fill:url(#linear-gradient);}.cls-4{fill:#845161;}.cls-5{fill:#69303a;}.cls-6{fill:#00214e;}.cls-7{fill:none;stroke:#00214e;stroke-miterlimit:10;}.cls-8{fill:#ffffff;}</style>
    <linearGradient
       id="linear-gradient"
       x1="69.93"
       y1="295.82999"
       x2="296.41"
       y2="295.82999"
       gradientUnits="userSpaceOnUse"
       gradientTransform="translate(-69.93,-36.797038)">
      <stop
         offset="0"
         stop-color="#16243f"
         id="stop1" />
      <stop
         offset="1"
         stop-color="#6878b1"
         id="stop2" />
    </linearGradient>
  </defs>
  <title
     id="title2">Artboards_Diversity_Avatars_by_Netguru</title>
  <path
     class="cls-1"
     d="m 226.48,254.38296 a 184.56,184.56 0 0 1 -226.48,-1 l 48.66,-22.81 a 46.83,46.83 0 0 0 6.65,-3.82 c 0.64,-0.44 1.28,-0.9 1.89,-1.38 a 46.35,46.35 0 0 0 12.78,-15.09 44.69,44.69 0 0 0 4.64,-14.48 67.91,67.91 0 0 0 0.74,-9.91 c 0,-3.46 -0.09,-6.92 -0.21,-10.38 -0.07,-2.26 -0.13,-4.53 -0.16,-6.79 q -0.06,-4.75 -0.1,-9.51 l 2,1 5.2,2.69 2.41,0.41 27.88,4.74 31.12,5.3 0.94,32 0.31,10.46 0.15,5.08 v 0.31 l 1,0.42 11.07,4.5 z"
     id="path2" />
  <path
     class="cls-2"
     d="m 144.89,221.20296 a 16,16 0 0 1 -10.07,-1.56 l -59.67,-48.77 c -0.07,-2.26 -0.13,0.1 -0.16,-2.16 q -0.06,-4.75 -0.1,-9.51 l 2,1 5.2,2.69 2.41,0.41 27.88,4.74 31.12,5.3 0.94,32 0.31,10.46 0.15,5.08 v 0.32 z"
     id="path3" />
  <path
     class="cls-3"
     d="m 226.48,254.38296 a 184.56,184.56 0 0 1 -226.48,-1 l 48.66,-22.81 a 46.83,46.83 0 0 0 6.65,-3.82 c 0.64,-0.44 1.28,-0.9 1.89,-1.38 23.55,16.76 55.69,27.33 83.49,14.82 6.62,-3 12.7,-7.84 16.3,-14.06 z"
     id="path4"
     style="fill:url(#linear-gradient)" />
  <path
     class="cls-4"
     d="m 208.58,54.102962 c -0.09,0.59 -0.2,1.17 -0.33,1.75 a 32.08,32.08 0 0 1 -3.31,8.49 l -0.08,0.14 c -0.57,1 -1.18,2 -1.84,3 a 74.32,74.32 0 0 1 -5.72,7.35 l -1.23,1.37 c -0.83,0.93 -1.67,1.84 -2.51,2.74 4.45,-1 8.76,3.15 9.55,7.63 0.79,4.48 -1,9 -3.21,13 -3.87,7.079998 -9.45,11.789998 -14.36,17.939998 -3.68,4.58 -5.72,10 -9.73,14.38 l -0.3,0.33 c -10.59,11.12 -27.31,13.72 -41.23,18.47 -5,1.72 -59.22,17.12 -59.22,20.48 0,-0.73 -5.31,-6 -12,-12.41 -24,-22.79 -31.89,-58 -17.61,-88.199998 15.35,-32.5 50.21,-55.69 83.41,-66.8299999 10.38,-3.48 22.16,-5.82 32,-1 9.84,4.82 14.74,19.7699999 6.58,27.0699999 a 26.16,26.16 0 0 1 17.93,-5.21 24.46,24.46 0 0 1 15.72,7.07 27,27 0 0 1 6.95,12.08 24.94,24.94 0 0 1 0.54,10.36 z"
     id="path5" />
  <path
     class="cls-5"
     d="m 208.58,54.102962 c -0.09,0.59 -0.2,1.17 -0.33,1.75 -0.09,0.17 -0.18,0.35 -0.27,0.55 -1.13,2.58 -1.65,5.36 -3,7.94 l -0.08,0.14 c -0.57,1 -1.18,2 -1.84,3 a 67.09,67.09 0 0 1 -5.72,7.35 l -1.27,1.37 c -0.83,0.93 -1.67,1.84 -2.51,2.74 4.45,-1 8.76,3.15 9.55,7.63 0.79,4.48 -1,9 -3.21,13 -3.87,7.079998 -9.45,11.789998 -14.36,17.939998 -3.68,4.58 -5.72,10 -9.73,14.38 a 37.7,37.7 0 0 1 -8.54,-19.47 c -1.64,-13.259998 -0.64,-27.709998 -1.09,-41.129998 -0.28,-8.44 -3,-10 2.06,-16.83 a 74.3,74.3 0 0 1 14,-13.29 c 4.08,-2.69 9.33,-3.11 14.2,-2.42 a 23.5,23.5 0 0 1 11.58,5 24.94,24.94 0 0 1 0.56,10.35 z"
     id="path6" />
  <circle
     class="cls-1"
     cx="65.049995"
     cy="131.20296"
     r="17"
     id="circle6" />
  <circle
     class="cls-2"
     cx="70.439995"
     cy="131.20296"
     r="15.22"
     id="circle7" />
  <path
     class="cls-1"
     d="m 70.67,115.20296 4.4,57 66.44,38.82 a 19.77,19.77 0 0 0 24.66,-9.82 c 9.56,-19.58 24.9,-50.5 22.88,-62 -3,-17 -11,-23 -11,-23 q 1.67,-10 3.32,-19.939998 c 1.26,-7.51 2.87,-15.35 1,-22.9 -2.13,-8.66 -8.67,-12.35 -14.05,-18.82 -14.16,18.24 -37.44,28.55 -57.77,39 -10.48,5.44 -39.88,21.659998 -39.88,21.659998 z"
     id="path7" />
  <path
     class="cls-6"
     d="m 119.79,113.00296 c 6.1,0 6.1,9.38 0,9.43 h -0.28 c -6.1,0 -6.1,-9.38 0,-9.43 z"
     id="path8" />
  <path
     class="cls-6"
     d="m 169.91,111.61296 c 5.67,0.05 5.67,8.7 0,8.75 h -0.25 c -5.66,0 -5.66,-8.7 0,-8.75 z"
     id="path9" />
  <path
     class="cls-7"
     d="m 145.2,110.29296 c -0.08,0.35 13.36,36.13 13.36,36.13 l -17.94,0.87"
     id="path10" />
  <path
     class="cls-7"
     d="m 102.72,103.37296 a 80.57,80.57 0 0 1 28.13,-0.79"
     id="path11" />
  <path
     class="cls-7"
     d="m 161.77,103.48296 a 55.34,55.34 0 0 1 17.45,-1.21"
     id="path12" />
  <path
     class="cls-8"
     d="m 122.24,157.30296 a 1.85,1.85 0 0 1 2.68,-0.5 c 2.08,1.46 5.88,4.56 11.28,5.63 7.36,1.47 13.74,-1.48 15.27,0.42 0.86,1.07 -0.19,2.37 -2.2,4 a 19.74,19.74 0 0 1 -14.86,3.69 c -7.08,-1.33 -12.4,-9.53 -12.4,-12.44 a 1.66,1.66 0 0 1 0.23,-0.8 z"
     id="path13" />
</svg>
