<svg width="143" height="40" viewBox="0 0 143 40" fill="none" xmlns="http://www.w3.org/2000/svg">
<path d="M20 5.00002V1.66669" stroke="white" stroke-width="3" stroke-linecap="round" stroke-linejoin="round"/>
<path d="M30 33.3333C30 36.095 27.7617 38.3333 25 38.3333C22.2383 38.3333 20 36.095 20 33.3333V25" stroke="white" stroke-width="3" stroke-linecap="round" stroke-linejoin="round"/>
<path d="M19.9998 5C15.0648 7.45583 11.6665 12.4475 11.6665 18.3333C11.6665 18.8992 11.6665 19.1667 11.6665 20" stroke="white" stroke-width="3" stroke-linecap="round" stroke-linejoin="round"/>
<path d="M20 5C24.935 7.45583 28.3333 12.4475 28.3333 18.3333C28.3333 18.8992 28.3333 19.1667 28.3333 20" stroke="white" stroke-width="3" stroke-linecap="round" stroke-linejoin="round"/>
<path d="M36.6666 20C35.8299 11.5775 28.6416 5 19.9999 5C11.3583 5 4.16992 11.5775 3.33325 20H36.6666Z" stroke="white" stroke-width="3" stroke-linecap="round" stroke-linejoin="round"/>
<path d="M20 20V5" stroke="white" stroke-width="3" stroke-linecap="round" stroke-linejoin="round"/>
<path d="M130.835 12.236V11.276H135.779V12.236H133.835V17.372H132.779V12.236H130.835ZM141.371 11.276H142.571V17.372H141.539V15.356C141.539 14.828 141.539 14.156 141.563 13.412C141.515 13.532 141.467 13.676 141.395 13.82L139.979 17.372H139.139L137.699 13.82L137.531 13.388C137.555 14.132 137.555 14.828 137.555 15.356V17.372H136.523V11.276H137.723L139.091 14.66C139.259 15.092 139.427 15.548 139.547 15.932L140.051 14.564L141.371 11.276Z" fill="white"/>
<path d="M125.385 28.364V11.276H129.129V28.364H125.385Z" fill="white"/>
<path d="M117.253 28.652C113.293 28.652 110.749 26.108 110.749 22.172C110.749 18.236 113.293 15.692 117.253 15.692C121.189 15.692 123.733 18.236 123.733 22.172C123.733 26.108 121.189 28.652 117.253 28.652ZM117.253 25.652C118.909 25.652 119.941 24.524 119.941 22.172C119.941 19.82 118.909 18.692 117.253 18.692C115.573 18.692 114.541 19.82 114.541 22.172C114.541 24.524 115.573 25.652 117.253 25.652Z" fill="white"/>
<path d="M103.992 28.724C100.2 28.724 98.256 27.5 98.04 24.428H101.688C101.832 25.772 102.504 26.228 104.064 26.228C105.576 26.228 106.152 25.772 106.152 25.028C106.152 24.284 105.696 23.924 104.016 23.66L102.408 23.396C99.792 22.988 98.232 21.812 98.232 19.604C98.232 17.132 100.176 15.692 103.8 15.692C107.976 15.692 109.44 17.516 109.56 19.94H106.08C106.032 18.596 105.144 18.188 103.8 18.188C102.456 18.188 101.904 18.644 101.904 19.364C101.904 20.108 102.504 20.42 103.704 20.612L105.552 20.876C108.48 21.332 109.896 22.508 109.896 24.716C109.896 27.284 107.712 28.724 103.992 28.724Z" fill="white"/>
<path d="M97.1416 28.364H93.3736C93.2056 28.052 93.0856 27.524 93.0616 26.972C92.2696 28.028 90.9256 28.652 89.1016 28.652C86.5096 28.652 84.5896 27.332 84.5896 24.86C84.5896 22.724 85.8616 21.308 89.4376 20.996L91.3816 20.828C92.4376 20.708 92.9896 20.396 92.9896 19.604C92.9896 18.86 92.5816 18.356 91.0936 18.356C89.6296 18.356 89.0296 18.716 88.9096 19.988H85.1896C85.3816 17.252 87.1336 15.692 91.1176 15.692C95.0056 15.692 96.6376 17.156 96.6376 19.508V26.084C96.6376 26.996 96.8056 27.884 97.1416 28.364ZM90.2296 26.132C91.6696 26.132 92.9896 25.436 92.9896 23.492V22.58C92.7256 22.868 92.3176 22.988 91.7416 23.06L90.2056 23.228C88.9336 23.372 88.4056 23.852 88.4056 24.716C88.4056 25.58 89.0536 26.132 90.2296 26.132Z" fill="white"/>
<path d="M83.5302 15.788C83.8182 15.788 84.0822 15.812 84.3462 15.836V19.244H83.3862C81.2982 19.244 80.0982 20.276 80.0982 22.604V28.364H76.3542V15.98H80.0022V18.284C80.5302 16.748 81.6822 15.788 83.5302 15.788Z" fill="white"/>
<path d="M74.876 28.364H71.108C70.94 28.052 70.82 27.524 70.796 26.972C70.004 28.028 68.66 28.652 66.836 28.652C64.244 28.652 62.324 27.332 62.324 24.86C62.324 22.724 63.596 21.308 67.172 20.996L69.116 20.828C70.172 20.708 70.724 20.396 70.724 19.604C70.724 18.86 70.316 18.356 68.828 18.356C67.364 18.356 66.764 18.716 66.644 19.988H62.924C63.116 17.252 64.868 15.692 68.852 15.692C72.74 15.692 74.372 17.156 74.372 19.508V26.084C74.372 26.996 74.54 27.884 74.876 28.364ZM67.964 26.132C69.404 26.132 70.724 25.436 70.724 23.492V22.58C70.46 22.868 70.052 22.988 69.476 23.06L67.94 23.228C66.668 23.372 66.14 23.852 66.14 24.716C66.14 25.58 66.788 26.132 67.964 26.132Z" fill="white"/>
<path d="M55.776 11.276C59.808 11.276 62.088 13.58 62.088 17.036C62.088 20.492 59.808 22.796 55.776 22.796H52.056V28.364H48V11.276H55.776ZM55.512 19.364C57.072 19.364 58.032 18.572 58.032 17.036C58.032 15.524 57.072 14.708 55.512 14.708H48V19.364H55.512Z" fill="white"/>
</svg>
