<?xml version="1.0" encoding="UTF-8" standalone="no"?>
<svg
   width="36"
   height="36"
   viewBox="0 0 36 36"
   fill="none"
   version="1.1"
   id="svg14"
   sodipodi:docname="parasol-icon.svg"
   inkscape:version="1.3.2 (091e20ef0f, 2023-11-25)"
   xmlns:inkscape="http://www.inkscape.org/namespaces/inkscape"
   xmlns:sodipodi="http://sodipodi.sourceforge.net/DTD/sodipodi-0.dtd"
   xmlns="http://www.w3.org/2000/svg"
   xmlns:svg="http://www.w3.org/2000/svg">
  <defs
     id="defs14">
    <inkscape:path-effect
       effect="fillet_chamfer"
       id="path-effect14"
       is_visible="true"
       lpeversion="1"
       nodesatellites_param="F,0,0,1,0,8,0,1 @ F,0,0,1,0,8,0,1 @ F,0,0,1,0,8,0,1 @ F,0,0,1,0,8,0,1"
       radius="8"
       unit="px"
       method="auto"
       mode="F"
       chamfer_steps="1"
       flexible="false"
       use_knot_distance="true"
       apply_no_radius="true"
       apply_with_radius="true"
       only_selected="false"
       hide_knots="false" />
  </defs>
  <sodipodi:namedview
     id="namedview14"
     pagecolor="#ffffff"
     bordercolor="#666666"
     borderopacity="1.0"
     inkscape:showpageshadow="2"
     inkscape:pageopacity="0.0"
     inkscape:pagecheckerboard="0"
     inkscape:deskcolor="#d1d1d1"
     showgrid="false"
     inkscape:zoom="15.244755"
     inkscape:cx="20.531651"
     inkscape:cy="14.004817"
     inkscape:window-width="1920"
     inkscape:window-height="1019"
     inkscape:window-x="0"
     inkscape:window-y="32"
     inkscape:window-maximized="1"
     inkscape:current-layer="layer1" />
  <g
     inkscape:groupmode="layer"
     id="layer1"
     inkscape:label="Bck">
    <path
       style="fill:#000000;fill-opacity:1;stroke-width:0;stroke-linejoin:round"
       id="rect14"
       width="36"
       height="36"
       x="0.034804009"
       y="-0.02374584"
       inkscape:path-effect="#path-effect14"
       sodipodi:type="rect"
       d="m 8.034804,-0.02374584 h 20 a 8,8 45 0 1 8,8.00000004 V 27.976254 a 8,8 135 0 1 -8,8 h -20 a 8,8 45 0 1 -7.99999999,-8 V 7.9762542 A 8,8 135 0 1 8.034804,-0.02374584 Z" />
  </g>
  <g
     id="g14"
     transform="translate(0.21726835,-1.2306715)"
     sodipodi:insensitive="true">
    <path
       d="M 17.782797,6.199074 V 3.303162"
       stroke="#ffffff"
       stroke-width="2.60632"
       stroke-linecap="round"
       stroke-linejoin="round"
       id="path1" />
    <path
       d="m 26.470543,30.814308 c 0,2.399295 -1.944579,4.343873 -4.343873,4.343873 -2.399295,0 -4.343873,-1.944578 -4.343873,-4.343873 v -7.239759"
       stroke="#ffffff"
       stroke-width="2.60632"
       stroke-linecap="round"
       stroke-linejoin="round"
       id="path2" />
    <path
       d="m 17.782623,6.199057 c -4.287403,2.133563 -7.239759,6.470199 -7.239759,11.583632 0,0.49164 0,0.724037 0,1.447987"
       stroke="#ffffff"
       stroke-width="2.60632"
       stroke-linecap="round"
       stroke-linejoin="round"
       id="path3" />
    <path
       d="m 17.782797,6.199057 c 4.287402,2.133563 7.239759,6.470199 7.239759,11.583632 0,0.49164 0,0.724037 0,1.447987"
       stroke="#ffffff"
       stroke-width="2.60632"
       stroke-linecap="round"
       stroke-linejoin="round"
       id="path4" />
    <path
       d="M 32.262315,19.230676 C 31.535412,11.913422 25.290399,6.199057 17.78271,6.199057 c -7.507602,0 -13.752684,5.714365 -14.4795617,13.031619 z"
       stroke="#ffffff"
       stroke-width="2.60632"
       stroke-linecap="round"
       stroke-linejoin="round"
       id="path5" />
    <path
       d="M 17.782797,19.230676 V 6.199057"
       stroke="#ffffff"
       stroke-width="2.60632"
       stroke-linecap="round"
       stroke-linejoin="round"
       id="path6" />
  </g>
</svg>
