<?xml version="1.0" encoding="UTF-8"?>
<svg xmlns="http://www.w3.org/2000/svg" xmlns:xlink="http://www.w3.org/1999/xlink" width="4713" height="3361" viewBox="0 0 4713 3361">
<path fill-rule="evenodd" fill="rgb(100%, 100%, 100%)" fill-opacity="1" d="M 0.632812 0.308594 L 4712.898438 0.308594 L 4712.898438 3360.300781 L 0.632812 3360.300781 L 0.632812 0.308594 "/>
<path fill-rule="evenodd" fill="rgb(97.65625%, 70.506287%, 14.109802%)" fill-opacity="1" d="M 2356.769531 287.289062 C 3126.109375 287.289062 3749.78125 910.96875 3749.78125 1680.308594 C 3749.78125 2449.648438 3126.109375 3073.320312 2356.769531 3073.320312 C 1587.429688 3073.320312 963.75 2449.648438 963.75 1680.308594 C 963.75 910.96875 1587.429688 287.289062 2356.769531 287.289062 "/>
<path fill-rule="evenodd" fill="rgb(98.4375%, 70.506287%, 47.459412%)" fill-opacity="1" d="M 3279.46875 2723.800781 C 3033.730469 2941.25 2710.691406 3073.320312 2356.769531 3073.320312 C 1991.730469 3073.320312 1659.539062 2932.84375 1411.160156 2703.09375 C 1456.851562 2653.316406 1527.808594 2594.109375 1628.46875 2557.171875 C 1828.78125 2483.660156 1966.621094 2463.445312 1966.621094 2463.445312 L 1972.128906 2389.9375 L 1839.808594 2388.097656 L 1911.480469 2274.160156 L 1808.570312 2366.042969 L 1645.011719 2367.882812 L 1753.429688 2246.589844 C 1753.429688 2246.589844 1654.199219 2359.621094 1548.53125 2360.539062 C 1442.851562 2361.460938 1339.019531 2304.488281 1339.019531 2304.488281 C 1339.019531 2304.488281 1498.890625 2294.390625 1526.460938 2200.660156 C 1554.03125 2106.929688 1530.128906 1796.351562 1530.128906 1796.351562 C 1530.128906 1796.351562 1480.519531 1760.53125 1478.679688 1682.421875 C 1476.839844 1604.320312 1518.179688 1564.808594 1518.179688 1564.808594 C 1518.179688 1564.808594 1477.730469 1038.300781 1621.078125 836.148438 C 1764.429688 633.988281 1904.089844 678.101562 1904.089844 678.101562 C 1904.089844 678.101562 1986.789062 424.488281 2258.78125 398.761719 C 2530.769531 373.03125 2778.859375 505.351562 2949.769531 753.441406 C 3120.679688 1001.53125 3258.5 1036.449219 3258.5 1036.449219 C 3258.5 1036.449219 3170.28125 1087.910156 3128.03125 1093.421875 C 3085.761719 1098.941406 3071.058594 1093.421875 3071.058594 1093.421875 L 3111.480469 1506.921875 C 3111.480469 1506.921875 3179.480469 1608 3164.78125 1703.558594 C 3150.070312 1799.121094 3129.859375 1821.179688 3129.859375 1821.179688 C 3129.859375 1821.179688 3098.621094 2157.488281 3150.078125 2246.621094 C 3201.539062 2335.75 3334.769531 2313.699219 3326.5 2316.460938 C 3318.230469 2319.210938 3147.320312 2377.101562 3075.640625 2357.800781 C 3003.980469 2338.5 2915.769531 2225.480469 2915.769531 2225.480469 L 2878.089844 2229.160156 L 3004.890625 2355.050781 L 2867.058594 2371.589844 L 2708.089844 2267.75 L 2824.789062 2387.207031 L 2662.148438 2390.882812 C 2662.148438 2390.882812 2674.070312 2455.214844 2819.261719 2482.78125 C 2936.710938 2505.082031 3165.980469 2622.386719 3279.46875 2723.800781 "/>
<path fill-rule="evenodd" fill="rgb(79.6875%, 56.054688%, 36.473083%)" fill-opacity="1" d="M 2775.089844 2311.511719 L 2708.089844 2267.75 L 2774.78125 2336.019531 C 2774.589844 2353.058594 2774.410156 2370.6875 2774.238281 2388.347656 L 2662.148438 2390.882812 C 2662.148438 2390.882812 2671.46875 2441.078125 2773.71875 2471.789062 C 2773.550781 2532.597656 2774.03125 2581.585938 2775.910156 2590.34375 C 2781.429688 2616.074219 2764.890625 2584.824219 2691.378906 2511.316406 C 2617.859375 2437.808594 2507.601562 2393.699219 2321.988281 2399.214844 C 2136.378906 2404.734375 2026.109375 2233.820312 2026.109375 2233.820312 C 2026.109375 2233.820312 2178.640625 2338.570312 2360.578125 2327.539062 C 2542.519531 2316.511719 2652.789062 2172.25 2652.789062 2172.25 L 2776.839844 2191.550781 C 2776.839844 2191.550781 2775.929688 2244.308594 2775.089844 2311.511719 "/>
<path fill-rule="evenodd" fill="rgb(75.193787%, 15.281677%, 41.184998%)" fill-opacity="1" d="M 3279.46875 2723.800781 C 3033.730469 2941.25 2710.691406 3073.320312 2356.769531 3073.320312 C 1991.730469 3073.320312 1659.539062 2932.84375 1411.160156 2703.09375 C 1456.851562 2653.316406 1527.808594 2594.109375 1628.46875 2557.171875 C 1828.78125 2483.660156 1966.621094 2463.445312 1966.621094 2463.445312 C 1966.621094 2463.445312 2041.730469 2893.5625 2299.019531 2900.914062 C 2556.308594 2908.265625 2674.53125 2594.113281 2691.308594 2430.933594 L 2691.308594 2430.921875 C 2713.449219 2449.402344 2752.089844 2470.03125 2819.261719 2482.78125 C 2936.710938 2505.082031 3165.980469 2622.386719 3279.46875 2723.800781 Z M 2819.441406 2381.730469 L 2824.789062 2387.207031 L 2734.488281 2389.246094 C 2756.230469 2382.738281 2785.238281 2380.472656 2819.441406 2381.730469 "/>
<path fill-rule="evenodd" fill="rgb(86.326599%, 23.535156%, 52.146912%)" fill-opacity="1" d="M 3023.378906 2903.660156 C 2837.691406 3005.085938 2626.390625 3065.476562 2401.640625 3072.59375 C 2410.589844 3058.980469 2421.109375 3043.066406 2431.339844 3027.730469 C 2457.070312 2989.136719 2517.710938 2976.273438 2662.890625 2796.171875 C 2752.179688 2685.40625 2775.789062 2556.609375 2780.738281 2473.835938 C 2792.410156 2477.105469 2805.199219 2480.113281 2819.261719 2482.78125 C 2901.699219 2498.4375 3039.25 2560.902344 3153.160156 2631.824219 L 3120.488281 2671.203125 C 3069.851562 2732.316406 3040.371094 2824.117188 3023.378906 2903.660156 Z M 2260.730469 3070.035156 C 2041.808594 3055.121094 1836.800781 2989.609375 1657.25 2885.117188 C 1650.71875 2861.757812 1642.421875 2835.269531 1631.921875 2805.363281 C 1605.25 2729.414062 1559.058594 2663.773438 1515.648438 2614.054688 C 1548.101562 2592.683594 1585.589844 2572.90625 1628.46875 2557.171875 C 1737.320312 2517.222656 1827.71875 2493.019531 1887.578125 2479.242188 C 1888.109375 2504.257812 1889.128906 2538.519531 1891.03125 2584.828125 C 1896.550781 2718.984375 2012.328125 2858.65625 2124.429688 2932.164062 C 2189.058594 2974.546875 2234.140625 3030.363281 2260.730469 3070.035156 "/>
<path fill-rule="evenodd" fill="rgb(34.521484%, 10.205078%, 38.035583%)" fill-opacity="1" d="M 3129.859375 1821.179688 C 3129.859375 1821.179688 3098.621094 2157.488281 3150.078125 2246.621094 C 3201.539062 2335.75 3334.769531 2313.699219 3326.5 2316.460938 C 3318.230469 2319.210938 3147.320312 2377.101562 3075.640625 2357.800781 C 3003.980469 2338.5 2915.769531 2225.480469 2915.769531 2225.480469 L 2878.089844 2229.160156 L 3004.890625 2355.050781 L 2867.058594 2371.589844 L 2708.089844 2267.75 L 2824.789062 2387.207031 L 2662.148438 2390.882812 C 2662.148438 2390.882812 2662.621094 2393.398438 2664.480469 2397.636719 L 2664.480469 2397.632812 L 2658.300781 2383.589844 L 2652.789062 2172.25 C 2652.789062 2172.25 2671.171875 2166.738281 2744.679688 2126.308594 C 2818.191406 2085.878906 2892.621094 1922.320312 2892.621094 1922.320312 C 2892.621094 1922.320312 2953.261719 1941.609375 3001.960938 1925.988281 C 3050.660156 1910.371094 3129.859375 1821.179688 3129.859375 1821.179688 "/>
<path fill-rule="evenodd" fill="rgb(34.910583%, 9.790039%, 37.255859%)" fill-opacity="1" d="M 1972.128906 2389.9375 L 1839.808594 2388.097656 L 1911.480469 2274.160156 L 1808.570312 2366.042969 L 1645.011719 2367.882812 L 1753.429688 2246.589844 C 1753.429688 2246.589844 1654.199219 2359.621094 1548.53125 2360.539062 C 1442.851562 2361.460938 1339.019531 2304.488281 1339.019531 2304.488281 C 1339.019531 2304.488281 1498.890625 2294.390625 1526.460938 2200.660156 C 1552.230469 2113.03125 1533.019531 1835.878906 1530.410156 1800.179688 C 1606.261719 1920.480469 1782.730469 1955.359375 1782.730469 1955.359375 C 1782.730469 1955.359375 1788.238281 1991.191406 1833.269531 2061.03125 C 1878.289062 2130.859375 1981.210938 2203.449219 1981.210938 2203.449219 Z M 1526.03125 1792.960938 C 1518.441406 1786.230469 1501.96875 1769.371094 1490.589844 1741.449219 C 1501.28125 1754.101562 1513.070312 1770.640625 1526.03125 1792.960938 Z M 1518.179688 1564.808594 C 1518.179688 1564.808594 1477.730469 1038.300781 1621.078125 836.148438 C 1764.429688 633.988281 1904.089844 678.101562 1904.089844 678.101562 C 1904.089844 678.101562 1986.789062 424.488281 2258.78125 398.761719 C 2530.769531 373.03125 2778.859375 505.351562 2949.769531 753.441406 C 3120.679688 1001.53125 3258.5 1036.449219 3258.5 1036.449219 C 3258.5 1036.449219 3170.28125 1087.910156 3128.03125 1093.421875 C 3085.761719 1098.941406 3071.058594 1093.421875 3071.058594 1093.421875 L 3111.480469 1506.921875 L 2984.578125 1438.960938 C 2984.578125 1438.960938 2995.601562 1567.601562 2977.21875 1672.351562 C 2958.839844 1777.101562 2911.980469 1853.371094 2911.980469 1853.371094 L 2885.328125 1553.820312 C 2885.328125 1553.820312 2867.871094 1566.679688 2830.199219 1575.878906 C 2792.53125 1585.070312 2736.480469 1585.050781 2736.480469 1585.050781 C 2736.480469 1585.050781 2780.589844 1569.429688 2808.148438 1530.828125 C 2835.71875 1492.238281 2881.671875 1339.710938 2761.289062 1264.359375 C 2640.921875 1189.011719 2519.628906 1279.058594 2339.53125 1320.410156 C 2159.421875 1361.761719 1964.628906 1151.339844 1964.628906 1151.339844 C 1964.628906 1151.339844 1968.308594 1179.820312 1953.601562 1261.601562 C 1938.898438 1343.378906 1884.691406 1336.03125 1805.671875 1414.140625 C 1726.640625 1492.238281 1764.320312 1819.371094 1764.320312 1819.371094 L 1714.699219 1789.960938 C 1714.699219 1789.960938 1699.078125 1753.199219 1683.460938 1697.148438 C 1667.839844 1641.101562 1649.460938 1438.03125 1649.460938 1438.03125 C 1649.460938 1438.03125 1640.28125 1444.46875 1598 1476.621094 C 1555.730469 1508.78125 1518.179688 1564.808594 1518.179688 1564.808594 "/>
</svg>
