<svg xmlns="http://www.w3.org/2000/svg" width="36" height="36" viewBox="0 0 36 36"><defs><style>.e4848e4a-1453-4b2c-a5d7-37cd085baca0{fill:#fff;}.e45db0d3-6247-45d6-b489-4d8b14b85dea{fill:#e00;}</style></defs><g id="bfd13333-b5f4-4c55-9e60-650cf341a39b" data-name="Bounding shape"><path d="M27,0H9A9,9,0,0,0,0,9V27a9,9,0,0,0,9,9H27a9,9,0,0,0,9-9V9a9,9,0,0,0-9-9Z"/></g><g id="aea0be85-80bd-4025-9ea3-c0f050afe6b0" data-name="Icons"><path class="e4848e4a-1453-4b2c-a5d7-37cd085baca0" d="M26.59082,24.07284,22.27832,13.732V9.53622h.875a.625.625,0,0,0,0-1.25h-1.5a.62526.62526,0,0,0-.625.625c0,.01068.00549.01953.006.03-.00055.0105-.006.01935-.006.03V13.858c0,.0116.006.02124.00659.03266a.61562.61562,0,0,0,.04126.20807l2.1637,5.1875H19.13281a.625.625,0,0,0,0,1.25h4.62848l1.67328,4.01171a1.29492,1.29492,0,0,1,.09375.48829,1.25116,1.25116,0,0,1-1.25,1.25h-9.75a1.25116,1.25116,0,0,1-1.25-1.25,1.287,1.287,0,0,1,.09277-.48194l1.01758-2.43994a.62534.62534,0,0,0-1.15429-.48145l-1.01954,2.44629a2.53272,2.53272,0,0,0-.18652.957,2.50263,2.50263,0,0,0,2.5,2.5h9.75a2.50263,2.50263,0,0,0,2.5-2.5A2.55958,2.55958,0,0,0,26.59082,24.07284Z"/><path class="e4848e4a-1453-4b2c-a5d7-37cd085baca0" d="M15.65332,9.53622h.875V13.858a.625.625,0,1,0,1.25,0V8.97127c0-.01068-.00549-.01953-.006-.03.00055-.01049.006-.01934.006-.03a.62526.62526,0,0,0-.625-.625h-1.5a.625.625,0,0,0,0,1.25Z"/><path class="e45db0d3-6247-45d6-b489-4d8b14b85dea" d="M13.3457,14.483a2.42139,2.42139,0,1,1,2.42188-2.42138A2.424,2.424,0,0,1,13.3457,14.483Zm0-3.59277a1.17139,1.17139,0,1,0,1.17188,1.17139A1.1725,1.1725,0,0,0,13.3457,10.89022Z"/><path class="e45db0d3-6247-45d6-b489-4d8b14b85dea" d="M9.5498,14.483a.62527.62527,0,0,1-.625-.625V10.26522a.625.625,0,0,1,1.25,0V13.858A.62526.62526,0,0,1,9.5498,14.483Z"/><path class="e45db0d3-6247-45d6-b489-4d8b14b85dea" d="M10.79688,20.53622a2.42139,2.42139,0,1,1,2.42089-2.42139A2.4248,2.4248,0,0,1,10.79688,20.53622Zm0-3.59278a1.17139,1.17139,0,1,0,1.17089,1.17139A1.1727,1.1727,0,0,0,10.79688,16.94344Z"/><path class="e45db0d3-6247-45d6-b489-4d8b14b85dea" d="M17.14258,20.53622a.62527.62527,0,0,1-.625-.625V16.31844a.625.625,0,0,1,1.25,0v3.59278A.62527.62527,0,0,1,17.14258,20.53622Z"/><path class="e45db0d3-6247-45d6-b489-4d8b14b85dea" d="M14.87012,20.53622a.62527.62527,0,0,1-.625-.625V16.31844a.625.625,0,1,1,1.25,0v3.59278A.62527.62527,0,0,1,14.87012,20.53622Z"/></g></svg>